<?xml version="1.0" encoding="UTF-8"?>
<svg width="18px" height="18px" viewBox="0 0 18 18" version="1.1" xmlns="http://www.w3.org/2000/svg" xmlns:xlink="http://www.w3.org/1999/xlink">
    <g id="Mobile" stroke="none" stroke-width="1" fill="none" fill-rule="evenodd">
        <g id="Home" transform="translate(-182.000000, -5758.000000)" fill="currentColor">
            <g id="Footer" transform="translate(0.000000, 5564.000000)">
                <g id="Socials" transform="translate(182.000000, 194.000000)">
                    <g id="Icon-/-Logos-/-Facebook-Alt">
                        <path d="M15,0 C16.6568542,-3.04359188e-16 18,1.34314575 18,3 L18,15 C18,16.6568542 16.6568542,18 15,18 L12.239738,18 L12.239738,10.8741657 L14.0147699,10.8741657 L14.25,8.41856374 L12.239738,8.41856374 L12.2427538,7.18951131 C12.2427538,6.54905253 12.2976659,6.20588007 13.1277566,6.20588007 L14.2374343,6.20588007 L14.2374343,3.75 L12.4621511,3.75 C10.3297504,3.75 9.57920062,4.94123114 9.57920062,6.94450734 L9.57920062,8.41884184 L8.25,8.41884184 L8.25,10.8744438 L9.57920062,10.8744438 L9.57920062,18 L3,18 C1.34314575,18 -6.85272294e-16,16.6568542 0,15 L0,3 C-2.02906125e-16,1.34314575 1.34314575,-5.83819232e-16 3,0 L15,0 Z" id="Combined-Shape"></path>
                    </g>
                </g>
            </g>
        </g>
    </g>
</svg>