<?xml version="1.0" encoding="UTF-8"?>
<svg width="18px" height="18px" viewBox="0 0 18 18" version="1.1" xmlns="http://www.w3.org/2000/svg" xmlns:xlink="http://www.w3.org/1999/xlink">
    <g id="Mobile" stroke="none" stroke-width="1" fill="none" fill-rule="evenodd">
        <g id="Home" transform="translate(-216.000000, -5758.000000)" fill="currentColor">
            <g id="Footer" transform="translate(0.000000, 5564.000000)">
                <g id="Socials" transform="translate(182.000000, 194.000000)">
                    <g id="Icon-/-Logos-/-IG" transform="translate(34.000000, 0.000000)">
                        <path d="M7.76520857,0.007106 L10.2291311,0.007106 C11.58933,0.0111585714 11.9389643,0.0247928571 12.7066786,0.0598214286 C13.6643214,0.1035 14.3183571,0.255607143 14.8906429,0.478035714 C15.4822857,0.707928571 15.9840357,1.01557143 16.48425,1.51575 C16.9844286,2.01596429 17.2920714,2.51771429 17.522,3.10935714 C17.7443929,3.68164286 17.8965,4.33567857 17.9401786,5.29332143 C17.9804614,6.17619286 17.9924503,6.50615349 17.9941108,8.45602094 L17.9941108,9.54968544 C17.9924503,11.4995251 17.9804614,11.8294857 17.9401786,12.7123571 C17.8965,13.67 17.7443929,14.3240357 17.522,14.8963214 C17.2920714,15.4879643 16.9844286,15.9897143 16.48425,16.4899286 C15.9840357,16.9901071 15.4822857,17.29775 14.8906429,17.5276786 C14.3183571,17.7500714 13.6643214,17.9021786 12.7066786,17.9458571 C11.8238071,17.98614 11.4938465,17.9981289 9.54400687,17.9997893 L8.45034237,17.9997893 C6.50047491,17.9981289 6.17051429,17.98614 5.28764286,17.9458571 C4.33,17.9021786 3.67596429,17.7500714 3.10367857,17.5276786 C2.51203571,17.29775 2.01028571,16.9901071 1.51007143,16.4899286 C1.00989286,15.9897143 0.70225,15.4879643 0.472357143,14.8963214 C0.249928571,14.3240357 0.0978214286,13.67 0.0541428571,12.7123571 C0.0191142857,11.9446429 0.00548,11.5950086 0.00142742857,10.2348097 L0.00142742857,7.77088714 C0.00548,6.41067 0.0191142857,6.06103571 0.0541428571,5.29332143 C0.0978214286,4.33567857 0.249928571,3.68164286 0.472357143,3.10935714 C0.70225,2.51771429 1.00989286,2.01596429 1.51007143,1.51575 C2.01028571,1.01557143 2.51203571,0.707928571 3.10367857,0.478035714 C3.67596429,0.255607143 4.33,0.1035 5.28764286,0.0598214286 C6.05535714,0.0247928571 6.40499143,0.0111585714 7.76520857,0.007106 L10.2291311,0.007106 Z M9.7753346,1.62722531 L8.21901117,1.62722531 C6.51696063,1.62947971 6.19640429,1.64115857 5.36153571,1.67925 C4.48432143,1.71925 4.00792857,1.86582143 3.69089286,1.98903571 C3.27092857,2.15225 2.97121429,2.34721429 2.65639286,2.66207143 C2.34153571,2.97689286 2.14657143,3.27660714 1.98335714,3.69657143 C1.86014286,4.01360714 1.71357143,4.49 1.67357143,5.36721429 C1.63548,6.20208286 1.62380114,6.5226392 1.62154673,8.22468974 L1.62154673,9.78101317 C1.62380114,11.4830394 1.63548,11.8035957 1.67357143,12.6384643 C1.71357143,13.5156786 1.86014286,13.9920714 1.98335714,14.3091071 C2.14657143,14.7290714 2.34157143,15.0287857 2.65639286,15.3436071 C2.97121429,15.6584643 3.27092857,15.8534286 3.69089286,16.0166429 C4.00792857,16.1398571 4.48432143,16.2864286 5.36153571,16.3264286 C6.23425429,16.3662514 6.54487257,16.377206 8.45981183,16.3787039 L9.53453804,16.3787039 C11.4494541,16.377206 11.7601,16.3662514 12.6327857,16.3264286 C13.51,16.2864286 13.9863929,16.1398571 14.3034286,16.0166429 C14.7233929,15.8534286 15.0231071,15.6584643 15.3379286,15.3436071 C15.6527857,15.0287857 15.84775,14.7290714 16.0109643,14.3091071 C16.1341786,13.9920714 16.28075,13.5156786 16.32075,12.6384643 C16.3605729,11.7656471 16.3715274,11.4549605 16.3730253,9.54017781 L16.3730253,8.46552857 C16.3715274,6.55071806 16.3605729,6.24003143 16.32075,5.36721429 C16.28075,4.49 16.1341786,4.01360714 16.0109643,3.69657143 C15.84775,3.27660714 15.6527857,2.97689286 15.3379286,2.66207143 C15.0231071,2.34721429 14.7233929,2.15225 14.3034286,1.98903571 C13.9863929,1.86582143 13.51,1.71925 12.6327857,1.67925 C11.7979171,1.64115857 11.4773608,1.62947971 9.7753346,1.62722531 Z M8.99717857,4.38267857 C11.5488214,4.38267857 13.6173214,6.45117857 13.6173214,9.00285714 C13.6173214,11.5545 11.5488214,13.623 8.99717857,13.623 C6.4455,13.623 4.377,11.5545 4.377,9.00285714 C4.377,6.45117857 6.4455,4.38267857 8.99717857,4.38267857 Z M8.99717857,6.00378571 C7.34082143,6.00378571 5.99810714,7.3465 5.99810714,9.00285714 C5.99810714,10.6591786 7.34082143,12.0018929 8.99717857,12.0018929 C10.6535,12.0018929 11.9962143,10.6591786 11.9962143,9.00285714 C11.9962143,7.3465 10.6535,6.00378571 8.99717857,6.00378571 Z M13.7998571,3.12046429 C14.3961429,3.12046429 14.8795357,3.60385714 14.8795357,4.20014286 C14.8795357,4.79642857 14.3961429,5.27978571 13.7998571,5.27978571 C13.2036071,5.27978571 12.7202143,4.79642857 12.7202143,4.20014286 C12.7202143,3.60385714 13.2036071,3.12046429 13.7998571,3.12046429 Z" id="Combined-Shape"></path>
                    </g>
                </g>
            </g>
        </g>
    </g>
</svg>