<?xml version="1.0" encoding="UTF-8"?>
<svg width="18px" height="18px" viewBox="0 0 18 18" version="1.1" xmlns="http://www.w3.org/2000/svg" xmlns:xlink="http://www.w3.org/1999/xlink">
    <g id="Mobile" stroke="none" stroke-width="1" fill="none" fill-rule="evenodd">
        <g id="Home" transform="translate(-250.000000, -5758.000000)" fill="currentColor">
            <g id="Footer" transform="translate(0.000000, 5564.000000)">
                <g id="Socials" transform="translate(182.000000, 194.000000)">
                    <g id="Icon-/-Logos-/-Li-Alt" transform="translate(68.000000, 0.000000)">
                        <path d="M15,0 C16.6568542,-3.04359188e-16 18,1.34314575 18,3 L18,15 C18,16.6568542 16.6568542,18 15,18 L3,18 C1.34314575,18 -6.85272294e-16,16.6568542 0,15 L0,3 C-2.02906125e-16,1.34314575 1.34314575,-5.83819232e-16 3,0 L15,0 Z M6.13363633,7.16525306 L3.88308092,7.16525306 L3.88308092,14.2498119 L6.13363633,14.2498119 L6.13363633,7.16525306 Z M11.6587646,6.9988939 C10.4638678,6.9988939 9.92889231,7.68652432 9.63019057,8.16890947 L9.63019057,8.16890947 L9.63019057,7.16544115 L7.3793655,7.16544115 C7.4066871,7.777737 7.38367944,13.2722196 7.37987637,14.1359532 L7.3793655,14.25 L9.63019057,14.25 L9.63019057,10.2933978 C9.63019057,10.0816637 9.64479757,9.87044683 9.70430419,9.71885214 C9.86695865,9.29585411 10.2373021,8.85790349 10.8590655,8.85790349 C11.6737761,8.85790349 11.9994446,9.50754121 11.9994446,10.4595689 L11.9994446,10.4595689 L11.9994446,14.2498119 L14.2499101,14.2498119 L14.25,10.1877424 C14.25,8.01167232 13.1397338,6.9988939 11.6587646,6.9988939 Z M5.02323527,3.75 C4.25333445,3.75 3.75,4.27907671 3.75,4.97371319 C3.75,5.65396139 4.23845779,6.19827276 4.99402129,6.19827276 L4.99402129,6.19827276 L5.00840356,6.19827276 C5.79313609,6.19827276 6.28186357,5.65396139 6.28186357,4.97371319 C6.26725657,4.27907671 5.79313609,3.75 5.02323527,3.75 Z" id="Combined-Shape"></path>
                    </g>
                </g>
            </g>
        </g>
    </g>
</svg>