<?xml version="1.0" encoding="UTF-8"?>
<svg width="18px" height="16px" viewBox="0 0 18 16" version="1.1" xmlns="http://www.w3.org/2000/svg" xmlns:xlink="http://www.w3.org/1999/xlink">
    <g id="Mobile" stroke="none" stroke-width="1" fill="none" fill-rule="evenodd">
        <g id="Home" transform="translate(-284.000000, -5759.000000)" fill="currentColor">
            <g id="Footer" transform="translate(0.000000, 5564.000000)">
                <g id="Socials" transform="translate(182.000000, 194.000000)">
                    <g id="Icon-/-Logos-/-Twitter" transform="translate(102.000000, 0.000000)">
                        <path d="M8.74002711,5.49023489 L8.77904506,6.1390272 L8.12874543,6.0595832 C5.76165478,5.75504808 3.69370194,4.72227664 1.93789291,2.98775027 L1.07949738,2.12710746 L0.858395536,2.76265908 C0.390179783,4.17940964 0.689317593,5.67560408 1.66476705,6.6818942 C2.18500676,7.23800188 2.06795284,7.31744582 1.17053935,6.98642938 C0.858395536,6.88050407 0.585269675,6.80106014 0.559257665,6.84078214 C0.468215752,6.9334667 0.780359567,8.13836669 1.02747342,8.61503044 C1.36562924,9.27706338 2.05494683,9.92585569 2.80929445,10.3098348 L3.44658809,10.61437 L2.69224047,10.6276106 C1.96390492,10.6276106 1.93789291,10.6408513 2.01592888,10.9189051 C2.27604874,11.779548 3.30352215,12.6931534 4.44804949,13.0903732 L5.25442107,13.3684271 L4.55209747,13.7921282 C3.51161805,14.4011985 2.28905474,14.7454556 1.06649143,14.7719369 C0.481221758,14.7851776 0,14.8381402 0,14.8778622 C0,15.0102688 1.58673108,15.7517457 2.51015658,16.0430402 C5.28043302,16.9036831 8.57094917,16.5329446 11.0420878,15.0632314 C12.7978968,14.0172194 14.5537058,11.9384359 15.3730834,9.92585569 C15.8152871,8.85336232 16.2574909,6.89374476 16.2574909,5.95365795 C16.2574909,5.34458764 16.2965089,5.2651437 17.0248445,4.53690739 C17.4540422,4.11320633 17.857228,3.64978327 17.935264,3.51737664 C18.0653239,3.26580414 18.0523179,3.26580414 17.3890122,3.49089533 C16.2835029,3.88811514 16.127431,3.83515245 16.6736826,3.23932283 C17.0768684,2.81562171 17.5580901,2.04766352 17.5580901,1.82257227 C17.5580901,1.78285033 17.3630002,1.84905358 17.1418984,1.96821952 C16.9077905,2.10062615 16.3875508,2.29923602 15.9973711,2.41840196 L15.2950474,2.64349314 L14.6577538,2.2065514 C14.306592,1.96821952 13.8123642,1.70340633 13.5522444,1.6239624 C12.8889388,1.43859315 11.8744713,1.46507446 11.2761957,1.67692502 C9.65044661,2.27275471 8.62297319,3.80867114 8.74002711,5.49023489 Z" id="Shape"></path>
                    </g>
                </g>
            </g>
        </g>
    </g>
</svg>